<svg xmlns="http://www.w3.org/2000/svg" viewBox="0 0 1440 900" width="1440" height="900" role="img" aria-label="Leerer Zustand mit Handlungsaufforderung – Aufnahme nachher"><title>Leerer Zustand mit Handlungsaufforderung – Aufnahme nachher</title><rect x="0" y="0" width="1440" height="900" fill="#D8DCE3"/><rect x="0" y="0" width="1440" height="38" fill="#ECEEF2"/><circle cx="18" cy="19" r="5" fill="#D9534F"/><circle cx="36" cy="19" r="5" fill="#E2A33C"/><circle cx="54" cy="19" r="5" fill="#4FA96B"/><rect x="74" y="9" width="520" height="20" fill="#FFFFFF" rx="10"/><text x="86" y="23" font-family="'IBM Plex Mono', ui-monospace, monospace" font-size="11" font-weight="400" fill="#6B7686" text-anchor="start">onescm.example/cockpit/anfragen</text><text x="1424" y="23" font-family="'IBM Plex Mono', ui-monospace, monospace" font-size="10" font-weight="400" fill="#95A0AE" text-anchor="end">Edge 141</text><rect x="0" y="38" width="1440" height="862" fill="#FFFFFF"/><rect x="0" y="38" width="1440" height="52" fill="#22364F"/><rect x="20" y="56" width="16" height="16" fill="#7FA8DC" rx="4"/><text x="44" y="69" font-family="'IBM Plex Sans', system-ui, sans-serif" font-size="14" font-weight="600" fill="#DDE4EE" text-anchor="start">oneSCM</text><text x="140" y="69" font-family="'IBM Plex Sans', system-ui, sans-serif" font-size="12" font-weight="400" fill="#FFFFFF" text-anchor="start">Übersicht</text><text x="244" y="69" font-family="'IBM Plex Sans', system-ui, sans-serif" font-size="12" font-weight="400" fill="#93A4BC" text-anchor="start">Bestellungen</text><text x="348" y="69" font-family="'IBM Plex Sans', system-ui, sans-serif" font-size="12" font-weight="400" fill="#93A4BC" text-anchor="start">Lieferanten</text><text x="452" y="69" font-family="'IBM Plex Sans', system-ui, sans-serif" font-size="12" font-weight="400" fill="#93A4BC" text-anchor="start">Auswertung</text><circle cx="1406" cy="64" r="12" fill="#43608A"/><text x="1406" y="68" font-family="'IBM Plex Sans', system-ui, sans-serif" font-size="10" font-weight="600" fill="#D5E1F0" text-anchor="middle">MA</text><rect x="0" y="90" width="200" height="810" fill="#F4F6F9"/><line x1="200" y1="90" x2="200" y2="900" stroke="#E1E5EB" stroke-width="1"/><text x="16" y="125" font-family="'IBM Plex Sans', system-ui, sans-serif" font-size="12" font-weight="400" fill="#5C6879" text-anchor="start">Alle Bestellungen</text><rect x="0" y="137" width="200" height="26" fill="#DCE8F6"/><rect x="0" y="137" width="3" height="26" fill="#2E6BB8"/><text x="16" y="155" font-family="'IBM Plex Sans', system-ui, sans-serif" font-size="12" font-weight="400" fill="#1B4C86" text-anchor="start">Offene Freigaben</text><text x="16" y="185" font-family="'IBM Plex Sans', system-ui, sans-serif" font-size="12" font-weight="400" fill="#5C6879" text-anchor="start">Wareneingang</text><text x="16" y="215" font-family="'IBM Plex Sans', system-ui, sans-serif" font-size="12" font-weight="400" fill="#5C6879" text-anchor="start">Reklamationen</text><text x="16" y="245" font-family="'IBM Plex Sans', system-ui, sans-serif" font-size="12" font-weight="400" fill="#5C6879" text-anchor="start">Stammdaten</text><text x="224" y="120" font-family="'IBM Plex Sans', system-ui, sans-serif" font-size="17" font-weight="600" fill="#26303F" text-anchor="start">Bestellungen</text><rect x="224" y="142" width="78" height="24" fill="#DCE8F6" rx="12"/><text x="263" y="158" font-family="'IBM Plex Sans', system-ui, sans-serif" font-size="11" font-weight="400" fill="#1B4C86" text-anchor="middle">Alle</text><rect x="310" y="142" width="78" height="24" fill="#F7F8FA" rx="12"/><text x="349" y="158" font-family="'IBM Plex Sans', system-ui, sans-serif" font-size="11" font-weight="400" fill="#5C6879" text-anchor="middle">Offen</text><rect x="396" y="142" width="78" height="24" fill="#F7F8FA" rx="12"/><text x="435" y="158" font-family="'IBM Plex Sans', system-ui, sans-serif" font-size="11" font-weight="400" fill="#5C6879" text-anchor="middle">Freigegeben</text><rect x="482" y="142" width="78" height="24" fill="#F7F8FA" rx="12"/><text x="521" y="158" font-family="'IBM Plex Sans', system-ui, sans-serif" font-size="11" font-weight="400" fill="#5C6879" text-anchor="middle">Verspätet</text><rect x="776" y="417" width="88" height="60" fill="#F7F8FA" rx="8"/><rect x="776.5" y="417.5" width="87" height="59" fill="none" stroke="#C6CDD8" stroke-width="1" rx="8"/><line x1="792" y1="437" x2="848" y2="437" stroke="#C6CDD8" stroke-width="1"/><line x1="792" y1="451" x2="828" y2="451" stroke="#C6CDD8" stroke-width="1"/><text x="820" y="497" font-family="'IBM Plex Sans', system-ui, sans-serif" font-size="15" font-weight="600" fill="#26303F" text-anchor="middle">Noch keine Anfragen</text><text x="820" y="519" font-family="'IBM Plex Sans', system-ui, sans-serif" font-size="12" font-weight="400" fill="#5C6879" text-anchor="middle">Hier erscheinen Ihre Anfragen an Lieferanten,</text><text x="820" y="537" font-family="'IBM Plex Sans', system-ui, sans-serif" font-size="12" font-weight="400" fill="#5C6879" text-anchor="middle">sobald die erste angelegt ist.</text><rect x="738" y="557" width="164" height="34" fill="#2E6BB8" rx="6"/><text x="820" y="579" font-family="'IBM Plex Sans', system-ui, sans-serif" font-size="12" font-weight="500" fill="#FFFFFF" text-anchor="middle">Erste Anfrage anlegen</text></svg>