<svg xmlns="http://www.w3.org/2000/svg" viewBox="0 0 1440 900" width="1440" height="900" role="img" aria-label="Ladeanzeige durch Skelettdarstellung ersetzt – Aufnahme nachher"><title>Ladeanzeige durch Skelettdarstellung ersetzt – Aufnahme nachher</title><rect x="0" y="0" width="1440" height="900" fill="#D8DCE3"/><rect x="0" y="0" width="1440" height="38" fill="#ECEEF2"/><circle cx="18" cy="19" r="5" fill="#D9534F"/><circle cx="36" cy="19" r="5" fill="#E2A33C"/><circle cx="54" cy="19" r="5" fill="#4FA96B"/><rect x="74" y="9" width="520" height="20" fill="#FFFFFF" rx="10"/><text x="86" y="23" font-family="'IBM Plex Mono', ui-monospace, monospace" font-size="11" font-weight="400" fill="#6B7686" text-anchor="start">onescm.example/portal/uebersicht</text><text x="1424" y="23" font-family="'IBM Plex Mono', ui-monospace, monospace" font-size="10" font-weight="400" fill="#95A0AE" text-anchor="end">Chrome 141</text><rect x="0" y="38" width="1440" height="862" fill="#FFFFFF"/><rect x="0" y="38" width="1440" height="52" fill="#22364F"/><rect x="20" y="56" width="16" height="16" fill="#7FA8DC" rx="4"/><text x="44" y="69" font-family="'IBM Plex Sans', system-ui, sans-serif" font-size="14" font-weight="600" fill="#DDE4EE" text-anchor="start">oneSCM</text><text x="140" y="69" font-family="'IBM Plex Sans', system-ui, sans-serif" font-size="12" font-weight="400" fill="#FFFFFF" text-anchor="start">Übersicht</text><text x="244" y="69" font-family="'IBM Plex Sans', system-ui, sans-serif" font-size="12" font-weight="400" fill="#93A4BC" text-anchor="start">Bestellungen</text><text x="348" y="69" font-family="'IBM Plex Sans', system-ui, sans-serif" font-size="12" font-weight="400" fill="#93A4BC" text-anchor="start">Lieferanten</text><text x="452" y="69" font-family="'IBM Plex Sans', system-ui, sans-serif" font-size="12" font-weight="400" fill="#93A4BC" text-anchor="start">Auswertung</text><circle cx="1406" cy="64" r="12" fill="#43608A"/><text x="1406" y="68" font-family="'IBM Plex Sans', system-ui, sans-serif" font-size="10" font-weight="600" fill="#D5E1F0" text-anchor="middle">MA</text><rect x="0" y="90" width="200" height="810" fill="#F4F6F9"/><line x1="200" y1="90" x2="200" y2="900" stroke="#E1E5EB" stroke-width="1"/><text x="16" y="125" font-family="'IBM Plex Sans', system-ui, sans-serif" font-size="12" font-weight="400" fill="#8F99A8" text-anchor="start">Alle Bestellungen</text><text x="16" y="155" font-family="'IBM Plex Sans', system-ui, sans-serif" font-size="12" font-weight="400" fill="#8F99A8" text-anchor="start">Offene Freigaben</text><text x="16" y="185" font-family="'IBM Plex Sans', system-ui, sans-serif" font-size="12" font-weight="400" fill="#8F99A8" text-anchor="start">Wareneingang</text><text x="16" y="215" font-family="'IBM Plex Sans', system-ui, sans-serif" font-size="12" font-weight="400" fill="#8F99A8" text-anchor="start">Reklamationen</text><text x="16" y="245" font-family="'IBM Plex Sans', system-ui, sans-serif" font-size="12" font-weight="400" fill="#8F99A8" text-anchor="start">Stammdaten</text><text x="224" y="124" font-family="'IBM Plex Sans', system-ui, sans-serif" font-size="15" font-weight="500" fill="#5C6879" text-anchor="start">Übersicht Einkauf</text><text x="224" y="146" font-family="'IBM Plex Mono', ui-monospace, monospace" font-size="11" font-weight="400" fill="#8F99A8" text-anchor="start">Stand 30.06.2025 · Werk Nord</text><rect x="224" y="168" width="287.5" height="76" fill="#FFFFFF" rx="8"/><rect x="224.5" y="168.5" width="286.5" height="75" fill="none" stroke="#E1E5EB" stroke-width="1" rx="8"/><rect x="238" y="186" width="143.75" height="8" fill="#DDE2E9" rx="4"/><rect x="238" y="204" width="100.625" height="16" fill="#E7EBF0" rx="4"/><rect x="238" y="228" width="115" height="7" fill="#DDE2E9" rx="4"/><rect x="525.5" y="168" width="287.5" height="76" fill="#FFFFFF" rx="8"/><rect x="526" y="168.5" width="286.5" height="75" fill="none" stroke="#E1E5EB" stroke-width="1" rx="8"/><rect x="539.5" y="186" width="143.75" height="8" fill="#DDE2E9" rx="4"/><rect x="539.5" y="204" width="100.625" height="16" fill="#E7EBF0" rx="4"/><rect x="539.5" y="228" width="115" height="7" fill="#DDE2E9" rx="4"/><rect x="827" y="168" width="287.5" height="76" fill="#FFFFFF" rx="8"/><rect x="827.5" y="168.5" width="286.5" height="75" fill="none" stroke="#E1E5EB" stroke-width="1" rx="8"/><rect x="841" y="186" width="143.75" height="8" fill="#DDE2E9" rx="4"/><rect x="841" y="204" width="100.625" height="16" fill="#E7EBF0" rx="4"/><rect x="841" y="228" width="115" height="7" fill="#DDE2E9" rx="4"/><rect x="1128.5" y="168" width="287.5" height="76" fill="#FFFFFF" rx="8"/><rect x="1129" y="168.5" width="286.5" height="75" fill="none" stroke="#E1E5EB" stroke-width="1" rx="8"/><rect x="1142.5" y="186" width="143.75" height="8" fill="#DDE2E9" rx="4"/><rect x="1142.5" y="204" width="100.625" height="16" fill="#E7EBF0" rx="4"/><rect x="1142.5" y="228" width="115" height="7" fill="#DDE2E9" rx="4"/><text x="224" y="280" font-family="'IBM Plex Sans', system-ui, sans-serif" font-size="13" font-weight="500" fill="#5C6879" text-anchor="start">Letzte Bewegungen</text><line x1="224" y1="298" x2="1416" y2="298" stroke="#E1E5EB" stroke-width="1"/><rect x="224" y="312" width="120" height="8" fill="#DDE2E9" rx="4"/><rect x="404" y="312" width="200" height="8" fill="#DDE2E9" rx="4"/><rect x="1326" y="312" width="90" height="8" fill="#DDE2E9" rx="4"/><line x1="224" y1="334" x2="1416" y2="334" stroke="#E1E5EB" stroke-width="1"/><rect x="224" y="348" width="120" height="8" fill="#DDE2E9" rx="4"/><rect x="404" y="348" width="200" height="8" fill="#DDE2E9" rx="4"/><rect x="1326" y="348" width="90" height="8" fill="#DDE2E9" rx="4"/><line x1="224" y1="370" x2="1416" y2="370" stroke="#E1E5EB" stroke-width="1"/><rect x="224" y="384" width="120" height="8" fill="#DDE2E9" rx="4"/><rect x="404" y="384" width="200" height="8" fill="#DDE2E9" rx="4"/><rect x="1326" y="384" width="90" height="8" fill="#DDE2E9" rx="4"/><line x1="224" y1="406" x2="1416" y2="406" stroke="#E1E5EB" stroke-width="1"/><rect x="224" y="420" width="120" height="8" fill="#DDE2E9" rx="4"/><rect x="404" y="420" width="200" height="8" fill="#DDE2E9" rx="4"/><rect x="1326" y="420" width="90" height="8" fill="#DDE2E9" rx="4"/><line x1="224" y1="442" x2="1416" y2="442" stroke="#E1E5EB" stroke-width="1"/><rect x="224" y="456" width="120" height="8" fill="#DDE2E9" rx="4"/><rect x="404" y="456" width="200" height="8" fill="#DDE2E9" rx="4"/><rect x="1326" y="456" width="90" height="8" fill="#DDE2E9" rx="4"/><line x1="224" y1="478" x2="1416" y2="478" stroke="#E1E5EB" stroke-width="1"/><rect x="224" y="492" width="120" height="8" fill="#DDE2E9" rx="4"/><rect x="404" y="492" width="200" height="8" fill="#DDE2E9" rx="4"/><rect x="1326" y="492" width="90" height="8" fill="#DDE2E9" rx="4"/><line x1="224" y1="514" x2="1416" y2="514" stroke="#E1E5EB" stroke-width="1"/><rect x="224" y="528" width="120" height="8" fill="#DDE2E9" rx="4"/><rect x="404" y="528" width="200" height="8" fill="#DDE2E9" rx="4"/><rect x="1326" y="528" width="90" height="8" fill="#DDE2E9" rx="4"/><line x1="224" y1="550" x2="1416" y2="550" stroke="#E1E5EB" stroke-width="1"/><rect x="224" y="564" width="120" height="8" fill="#DDE2E9" rx="4"/><rect x="404" y="564" width="200" height="8" fill="#DDE2E9" rx="4"/><rect x="1326" y="564" width="90" height="8" fill="#DDE2E9" rx="4"/><line x1="224" y1="586" x2="1416" y2="586" stroke="#E1E5EB" stroke-width="1"/><rect x="224" y="600" width="120" height="8" fill="#DDE2E9" rx="4"/><rect x="404" y="600" width="200" height="8" fill="#DDE2E9" rx="4"/><rect x="1326" y="600" width="90" height="8" fill="#DDE2E9" rx="4"/><line x1="224" y1="622" x2="1416" y2="622" stroke="#E1E5EB" stroke-width="1"/><rect x="224" y="636" width="120" height="8" fill="#DDE2E9" rx="4"/><rect x="404" y="636" width="200" height="8" fill="#DDE2E9" rx="4"/><rect x="1326" y="636" width="90" height="8" fill="#DDE2E9" rx="4"/><line x1="224" y1="658" x2="1416" y2="658" stroke="#E1E5EB" stroke-width="1"/><rect x="224" y="672" width="120" height="8" fill="#DDE2E9" rx="4"/><rect x="404" y="672" width="200" height="8" fill="#DDE2E9" rx="4"/><rect x="1326" y="672" width="90" height="8" fill="#DDE2E9" rx="4"/><line x1="224" y1="694" x2="1416" y2="694" stroke="#E1E5EB" stroke-width="1"/><rect x="224" y="708" width="120" height="8" fill="#DDE2E9" rx="4"/><rect x="404" y="708" width="200" height="8" fill="#DDE2E9" rx="4"/><rect x="1326" y="708" width="90" height="8" fill="#DDE2E9" rx="4"/><line x1="224" y1="730" x2="1416" y2="730" stroke="#E1E5EB" stroke-width="1"/><rect x="224" y="744" width="120" height="8" fill="#DDE2E9" rx="4"/><rect x="404" y="744" width="200" height="8" fill="#DDE2E9" rx="4"/><rect x="1326" y="744" width="90" height="8" fill="#DDE2E9" rx="4"/><line x1="224" y1="766" x2="1416" y2="766" stroke="#E1E5EB" stroke-width="1"/><rect x="224" y="780" width="120" height="8" fill="#DDE2E9" rx="4"/><rect x="404" y="780" width="200" height="8" fill="#DDE2E9" rx="4"/><rect x="1326" y="780" width="90" height="8" fill="#DDE2E9" rx="4"/><line x1="224" y1="802" x2="1416" y2="802" stroke="#E1E5EB" stroke-width="1"/><rect x="224" y="816" width="120" height="8" fill="#DDE2E9" rx="4"/><rect x="404" y="816" width="200" height="8" fill="#DDE2E9" rx="4"/><rect x="1326" y="816" width="90" height="8" fill="#DDE2E9" rx="4"/><line x1="224" y1="838" x2="1416" y2="838" stroke="#E1E5EB" stroke-width="1"/><rect x="224" y="852" width="120" height="8" fill="#DDE2E9" rx="4"/><rect x="404" y="852" width="200" height="8" fill="#DDE2E9" rx="4"/><rect x="1326" y="852" width="90" height="8" fill="#DDE2E9" rx="4"/></svg>