<svg xmlns="http://www.w3.org/2000/svg" viewBox="0 0 1440 900" width="1440" height="900" role="img" aria-label="Berechtigungshinweis nennt die fehlende Rolle – Aufnahme vorher"><title>Berechtigungshinweis nennt die fehlende Rolle – Aufnahme vorher</title><rect x="0" y="0" width="1440" height="900" fill="#D8DCE3"/><rect x="0" y="0" width="1440" height="38" fill="#ECEEF2"/><circle cx="18" cy="19" r="5" fill="#D9534F"/><circle cx="36" cy="19" r="5" fill="#E2A33C"/><circle cx="54" cy="19" r="5" fill="#4FA96B"/><rect x="74" y="9" width="520" height="20" fill="#FFFFFF" rx="10"/><text x="86" y="23" font-family="'IBM Plex Mono', ui-monospace, monospace" font-size="11" font-weight="400" fill="#6B7686" text-anchor="start">onescm.example/admin/rollen</text><text x="1424" y="23" font-family="'IBM Plex Mono', ui-monospace, monospace" font-size="10" font-weight="400" fill="#95A0AE" text-anchor="end">Edge 141</text><rect x="0" y="38" width="1440" height="862" fill="#FFFFFF"/><rect x="0" y="38" width="1440" height="52" fill="#22364F"/><rect x="20" y="56" width="16" height="16" fill="#7FA8DC" rx="4"/><text x="44" y="69" font-family="'IBM Plex Sans', system-ui, sans-serif" font-size="14" font-weight="600" fill="#DDE4EE" text-anchor="start">oneSCM</text><text x="140" y="69" font-family="'IBM Plex Sans', system-ui, sans-serif" font-size="12" font-weight="400" fill="#FFFFFF" text-anchor="start">Übersicht</text><text x="244" y="69" font-family="'IBM Plex Sans', system-ui, sans-serif" font-size="12" font-weight="400" fill="#93A4BC" text-anchor="start">Bestellungen</text><text x="348" y="69" font-family="'IBM Plex Sans', system-ui, sans-serif" font-size="12" font-weight="400" fill="#93A4BC" text-anchor="start">Lieferanten</text><text x="452" y="69" font-family="'IBM Plex Sans', system-ui, sans-serif" font-size="12" font-weight="400" fill="#93A4BC" text-anchor="start">Auswertung</text><circle cx="1406" cy="64" r="12" fill="#43608A"/><text x="1406" y="68" font-family="'IBM Plex Sans', system-ui, sans-serif" font-size="10" font-weight="600" fill="#D5E1F0" text-anchor="middle">MA</text><rect x="0" y="90" width="200" height="810" fill="#F4F6F9"/><line x1="200" y1="90" x2="200" y2="900" stroke="#E1E5EB" stroke-width="1"/><text x="16" y="125" font-family="'IBM Plex Sans', system-ui, sans-serif" font-size="12" font-weight="400" fill="#8F99A8" text-anchor="start">Alle Bestellungen</text><text x="16" y="155" font-family="'IBM Plex Sans', system-ui, sans-serif" font-size="12" font-weight="400" fill="#8F99A8" text-anchor="start">Offene Freigaben</text><text x="16" y="185" font-family="'IBM Plex Sans', system-ui, sans-serif" font-size="12" font-weight="400" fill="#8F99A8" text-anchor="start">Wareneingang</text><text x="16" y="215" font-family="'IBM Plex Sans', system-ui, sans-serif" font-size="12" font-weight="400" fill="#8F99A8" text-anchor="start">Reklamationen</text><text x="16" y="245" font-family="'IBM Plex Sans', system-ui, sans-serif" font-size="12" font-weight="400" fill="#8F99A8" text-anchor="start">Stammdaten</text><text x="224" y="124" font-family="'IBM Plex Sans', system-ui, sans-serif" font-size="15" font-weight="500" fill="#5C6879" text-anchor="start">Stammdaten bearbeiten</text><text x="224" y="146" font-family="'IBM Plex Mono', ui-monospace, monospace" font-size="11" font-weight="400" fill="#8F99A8" text-anchor="start">Beleg LS-2025-0481 · zuletzt geändert 12.06.2025</text><rect x="224" y="170" width="1192" height="40" fill="#FBE9E7" rx="6"/><rect x="224" y="170" width="3" height="40" fill="#B03A2E"/><text x="238" y="188" font-family="'IBM Plex Sans', system-ui, sans-serif" font-size="12" font-weight="600" fill="#8C2F22" text-anchor="start">Zugriff verweigert</text><text x="238" y="203" font-family="'IBM Plex Sans', system-ui, sans-serif" font-size="11" font-weight="400" fill="#8C2F22" text-anchor="start">Bitte prüfen Sie Ihre Eingaben.</text><text x="224" y="236" font-family="'IBM Plex Sans', system-ui, sans-serif" font-size="11" font-weight="400" fill="#8F99A8" text-anchor="start">Firmenname</text><rect x="224" y="244" width="584" height="30" fill="#FFFFFF" rx="5"/><rect x="224.5" y="244.5" width="583" height="29" fill="none" stroke="#C6CDD8" stroke-width="1" rx="5"/><text x="236" y="264" font-family="'IBM Plex Sans', system-ui, sans-serif" font-size="12" font-weight="400" fill="#5C6879" text-anchor="start">Hansen Stahl AG</text><text x="832" y="236" font-family="'IBM Plex Sans', system-ui, sans-serif" font-size="11" font-weight="400" fill="#8F99A8" text-anchor="start">Umsatzsteuer-ID</text><rect x="832" y="244" width="584" height="30" fill="#FFFFFF" rx="5"/><rect x="832.5" y="244.5" width="583" height="29" fill="none" stroke="#C6CDD8" stroke-width="1" rx="5"/><text x="844" y="264" font-family="'IBM Plex Sans', system-ui, sans-serif" font-size="12" font-weight="400" fill="#5C6879" text-anchor="start">DE 811 —</text><text x="224" y="306" font-family="'IBM Plex Sans', system-ui, sans-serif" font-size="11" font-weight="400" fill="#8F99A8" text-anchor="start">Straße und Hausnummer</text><rect x="224" y="314" width="584" height="30" fill="#FFFFFF" rx="5"/><rect x="224.5" y="314.5" width="583" height="29" fill="none" stroke="#C6CDD8" stroke-width="1" rx="5"/><text x="236" y="334" font-family="'IBM Plex Sans', system-ui, sans-serif" font-size="12" font-weight="400" fill="#5C6879" text-anchor="start">Werftstraße 14</text><text x="832" y="306" font-family="'IBM Plex Sans', system-ui, sans-serif" font-size="11" font-weight="400" fill="#8F99A8" text-anchor="start">Postleitzahl</text><rect x="832" y="314" width="584" height="30" fill="#FFFFFF" rx="5"/><rect x="832.5" y="314.5" width="583" height="29" fill="none" stroke="#C6CDD8" stroke-width="1" rx="5"/><text x="844" y="334" font-family="'IBM Plex Mono', ui-monospace, monospace" font-size="12" font-weight="400" fill="#5C6879" text-anchor="start">2411</text><text x="224" y="376" font-family="'IBM Plex Sans', system-ui, sans-serif" font-size="11" font-weight="400" fill="#8F99A8" text-anchor="start">Ort</text><rect x="224" y="384" width="584" height="30" fill="#FFFFFF" rx="5"/><rect x="224.5" y="384.5" width="583" height="29" fill="none" stroke="#C6CDD8" stroke-width="1" rx="5"/><text x="236" y="404" font-family="'IBM Plex Sans', system-ui, sans-serif" font-size="12" font-weight="400" fill="#5C6879" text-anchor="start">Rendsburg</text><text x="832" y="376" font-family="'IBM Plex Sans', system-ui, sans-serif" font-size="11" font-weight="400" fill="#8F99A8" text-anchor="start">Ansprechperson</text><rect x="832" y="384" width="584" height="30" fill="#FFFFFF" rx="5"/><rect x="832.5" y="384.5" width="583" height="29" fill="none" stroke="#C6CDD8" stroke-width="1" rx="5"/><text x="844" y="404" font-family="'IBM Plex Sans', system-ui, sans-serif" font-size="12" font-weight="400" fill="#5C6879" text-anchor="start">K. Hansen</text><rect x="224" y="446" width="132" height="34" fill="#2E6BB8" rx="6"/><text x="290" y="468" font-family="'IBM Plex Sans', system-ui, sans-serif" font-size="12" font-weight="500" fill="#FFFFFF" text-anchor="middle">Speichern</text><rect x="368" y="446" width="108" height="34" fill="#FFFFFF" rx="6"/><rect x="368.5" y="446.5" width="107" height="33" fill="none" stroke="#C6CDD8" stroke-width="1" rx="6"/><text x="422" y="468" font-family="'IBM Plex Sans', system-ui, sans-serif" font-size="12" font-weight="400" fill="#8F99A8" text-anchor="middle">Abbrechen</text></svg>