<svg xmlns="http://www.w3.org/2000/svg" viewBox="0 0 390 844" width="390" height="844" role="img" aria-label="Fehlermeldung im Checkout entschärft – Aufnahme vorher"><title>Fehlermeldung im Checkout entschärft – Aufnahme vorher</title><rect x="0" y="0" width="390" height="844" fill="#D8DCE3"/><rect x="0" y="0" width="390" height="38" fill="#ECEEF2"/><circle cx="18" cy="19" r="5" fill="#D9534F"/><circle cx="36" cy="19" r="5" fill="#E2A33C"/><circle cx="54" cy="19" r="5" fill="#4FA96B"/><rect x="74" y="9" width="240" height="20" fill="#FFFFFF" rx="10"/><text x="86" y="23" font-family="'IBM Plex Mono', ui-monospace, monospace" font-size="11" font-weight="400" fill="#6B7686" text-anchor="start">onescm.example/checkout/zahlung</text><text x="374" y="23" font-family="'IBM Plex Mono', ui-monospace, monospace" font-size="10" font-weight="400" fill="#95A0AE" text-anchor="end">Safari 17.5</text><rect x="0" y="38" width="390" height="806" fill="#FFFFFF"/><rect x="0" y="38" width="390" height="44" fill="#22364F"/><rect x="20" y="52" width="16" height="16" fill="#7FA8DC" rx="4"/><text x="44" y="65" font-family="'IBM Plex Sans', system-ui, sans-serif" font-size="14" font-weight="600" fill="#DDE4EE" text-anchor="start">oneSCM</text><text x="370" y="65" font-family="'IBM Plex Sans', system-ui, sans-serif" font-size="16" font-weight="400" fill="#DDE4EE" text-anchor="end">☰</text><circle cx="356" cy="60" r="12" fill="#43608A"/><text x="356" y="64" font-family="'IBM Plex Sans', system-ui, sans-serif" font-size="10" font-weight="600" fill="#D5E1F0" text-anchor="middle">MA</text><text x="16" y="114" font-family="'IBM Plex Sans', system-ui, sans-serif" font-size="18" font-weight="600" fill="#5C6879" text-anchor="start">Zahlung</text><text x="374" y="114" font-family="'IBM Plex Mono', ui-monospace, monospace" font-size="11" font-weight="400" fill="#8F99A8" text-anchor="end">Schritt 3 von 4</text><rect x="16" y="138" width="358" height="34" fill="#FBE9E7" rx="6"/><rect x="16" y="138" width="3" height="34" fill="#B03A2E"/><text x="30" y="160" font-family="'IBM Plex Sans', system-ui, sans-serif" font-size="12" font-weight="500" fill="#8C2F22" text-anchor="start">Ungültige Eingabe</text><rect x="16" y="184" width="358" height="44" fill="#F3F7FC" rx="6"/><rect x="17" y="185" width="356" height="42" fill="none" stroke="#2E6BB8" stroke-width="2" rx="6"/><circle cx="36" cy="206" r="7" fill="#FFFFFF"/><rect x="29.5" y="199.5" width="13" height="13" fill="none" stroke="#2E6BB8" stroke-width="1" rx="7"/><circle cx="36" cy="206" r="4" fill="#2E6BB8"/><text x="54" y="211" font-family="'IBM Plex Sans', system-ui, sans-serif" font-size="13" font-weight="400" fill="#5C6879" text-anchor="start">Rechnung</text><rect x="16" y="234" width="358" height="44" fill="#FFFFFF" rx="6"/><rect x="16.5" y="234.5" width="357" height="43" fill="none" stroke="#C6CDD8" stroke-width="1" rx="6"/><circle cx="36" cy="256" r="7" fill="#FFFFFF"/><rect x="29.5" y="249.5" width="13" height="13" fill="none" stroke="#C6CDD8" stroke-width="1" rx="7"/><text x="54" y="261" font-family="'IBM Plex Sans', system-ui, sans-serif" font-size="13" font-weight="400" fill="#5C6879" text-anchor="start">Lastschrift</text><rect x="16" y="284" width="358" height="44" fill="#FFFFFF" rx="6"/><rect x="16.5" y="284.5" width="357" height="43" fill="none" stroke="#C6CDD8" stroke-width="1" rx="6"/><circle cx="36" cy="306" r="7" fill="#FFFFFF"/><rect x="29.5" y="299.5" width="13" height="13" fill="none" stroke="#C6CDD8" stroke-width="1" rx="7"/><text x="54" y="311" font-family="'IBM Plex Sans', system-ui, sans-serif" font-size="13" font-weight="400" fill="#5C6879" text-anchor="start">Kreditkarte</text><rect x="16" y="346" width="72.4" height="36" fill="#E6EAF0" rx="6"/><rect x="16.5" y="346.5" width="71.4" height="35" fill="none" stroke="#C6CDD8" stroke-width="1" rx="6"/><text x="52.2" y="369" font-family="'IBM Plex Sans', system-ui, sans-serif" font-size="12" font-weight="400" fill="#5C6879" text-anchor="middle">Zurück</text><rect x="100.4" y="346" width="124.2" height="36" fill="#E6EAF0" rx="6"/><rect x="100.9" y="346.5" width="123.2" height="35" fill="none" stroke="#C6CDD8" stroke-width="1" rx="6"/><text x="162.5" y="369" font-family="'IBM Plex Sans', system-ui, sans-serif" font-size="12" font-weight="400" fill="#5C6879" text-anchor="middle">Später zahlen</text><rect x="236.6" y="346" width="227.8" height="36" fill="#E6EAF0" rx="6"/><rect x="237.1" y="346.5" width="226.8" height="35" fill="none" stroke="#C6CDD8" stroke-width="1" rx="6"/><text x="350.5" y="369" font-family="'IBM Plex Sans', system-ui, sans-serif" font-size="12" font-weight="400" fill="#5C6879" text-anchor="middle">Zahlungspflichtig bestellen</text></svg>